# xmcd
# Copyright (C) 1995-1998 Ti Kan
#
# Track frame offsets:
#       150
#       18559
#       31596
#       42405
#       58073
#       76313
#       88183
#       104921
#       123013
#       132234
#
# Disc length: 2051 seconds
#
# Revision: 0
# Processed by: cddbd v1.5.2PL0 Copyright (c) Steve Scherf et al.
# Submitted via: CD-Transfer v1.0
#
DISCID=8008010a
DTITLE=Various Artist - Va-Ufo
DYEAR=12
DGENRE=
TTITLE0=Va-01
TTITLE1=Va-02
TTITLE2=Va-03
TTITLE3=Va-04
TTITLE4=Va-05
TTITLE5=Va-06
TTITLE6=Va-07
TTITLE7=Va-08
TTITLE8=Va-09
TTITLE9=Va-10
EXTD=
EXTT0=
EXTT1=
EXTT2=
EXTT3=
EXTT4=
EXTT5=
EXTT6=
EXTT7=
EXTT8=
EXTT9=
PLAYORDER=
